<svg width="16" height="16" viewBox="0 0 16 16" fill="none" xmlns="http://www.w3.org/2000/svg">
<path d="M10.7491 2.31236C10.7491 1.9643 10.6108 1.6305 10.3647 1.38438C10.1186 1.13827 9.78477 1 9.43671 1C9.08865 1 8.75485 1.13827 8.50873 1.38438C8.26262 1.6305 8.12435 1.9643 8.12435 2.31236C8.12435 2.66042 8.26262 2.99423 8.50873 3.24034C8.75485 3.48646 9.08865 3.62472 9.43671 3.62472C9.78477 3.62472 10.1186 3.48646 10.3647 3.24034C10.6108 2.99423 10.7491 2.66042 10.7491 2.31236ZM5.43675 5.79832C5.70742 5.52765 6.07652 5.37454 6.46203 5.37454C6.51398 5.37454 6.56592 5.37727 6.61514 5.38274L5.7621 7.94458C5.50783 8.71012 5.80858 9.55222 6.49484 9.98147L8.85162 11.4551L8.15716 13.883C8.02319 14.3478 8.29387 14.8317 8.75866 14.9657C9.22345 15.0997 9.70739 14.829 9.84136 14.3642L10.626 11.6192C10.7874 11.056 10.555 10.4545 10.0601 10.1455L8.50712 9.17492L9.35196 6.92203L9.4914 7.25832C9.90151 8.23713 10.8557 8.87417 11.9165 8.87417H12.4989C12.9828 8.87417 13.3738 8.48319 13.3738 7.99926C13.3738 7.51533 12.9828 7.12435 12.4989 7.12435H11.9165C11.5638 7.12435 11.2439 6.91109 11.11 6.58574L10.9377 6.17562C10.5386 5.21596 9.73199 4.48323 8.73679 4.17701L7.40529 3.76689C7.1018 3.67394 6.78465 3.62472 6.46476 3.62472C5.6172 3.62472 4.80244 3.96102 4.20367 4.56251L3.56937 5.19409C3.2276 5.53585 3.2276 6.09087 3.56937 6.43263C3.91113 6.77439 4.46615 6.77439 4.80791 6.43263L5.43948 5.80105L5.43675 5.79832ZM4.49349 10.624H2.87491C2.39097 10.624 2 11.015 2 11.4989C2 11.9828 2.39097 12.3738 2.87491 12.3738H4.77783C5.29731 12.3738 5.76757 12.0676 5.9781 11.5946L6.29251 10.8865L6.03278 10.7224C5.55431 10.4244 5.19888 9.98967 4.99656 9.49481L4.49349 10.624Z" fill="#284A56"/>
</svg>
