<svg width="16" height="16" viewBox="0 0 16 16" fill="none" xmlns="http://www.w3.org/2000/svg">
<path d="M3.1 3.7C3.1 3.31281 3.41281 3 3.8 3H4.5C4.88719 3 5.2 3.31281 5.2 3.7V7.2V8.6V12.1C5.2 12.4872 4.88719 12.8 4.5 12.8H3.8C3.41281 12.8 3.1 12.4872 3.1 12.1V10.7H2.4C2.01281 10.7 1.7 10.3872 1.7 10V8.6C1.31281 8.6 1 8.28719 1 7.9C1 7.51281 1.31281 7.2 1.7 7.2V5.8C1.7 5.41281 2.01281 5.1 2.4 5.1H3.1V3.7ZM12.9 3.7V5.1H13.6C13.9872 5.1 14.3 5.41281 14.3 5.8V7.2C14.6872 7.2 15 7.51281 15 7.9C15 8.28719 14.6872 8.6 14.3 8.6V10C14.3 10.3872 13.9872 10.7 13.6 10.7H12.9V12.1C12.9 12.4872 12.5872 12.8 12.2 12.8H11.5C11.1128 12.8 10.8 12.4872 10.8 12.1V8.6V7.2V3.7C10.8 3.31281 11.1128 3 11.5 3H12.2C12.5872 3 12.9 3.31281 12.9 3.7ZM10.1 7.2V8.6H5.9V7.2H10.1Z" fill="#284A56"/>
</svg>
