<svg width="16" height="16" viewBox="0 0 16 16" fill="none" xmlns="http://www.w3.org/2000/svg">
<path d="M11.5575 2.08462C11.9525 2.28212 12.1125 2.76212 11.915 3.15712L6.5375 13.9146C6.2675 14.4571 5.7125 14.7996 5.1075 14.7996H4H3.2H2.4V13.9996V10.7996H6.305L10.485 2.44212C10.6825 2.04712 11.1625 1.88712 11.5575 2.08462ZM0 11.5996C0 11.1571 0.3575 10.7996 0.8 10.7996H1.6V14.7996H0.8C0.3575 14.7996 0 14.4421 0 13.9996V11.5996ZM10.4 12.3996H15.2C15.6425 12.3996 16 12.7571 16 13.1996V13.9996C16 14.4421 15.6425 14.7996 15.2 14.7996H10.4C9.9575 14.7996 9.6 14.4421 9.6 13.9996V13.1996C9.6 12.7571 9.9575 12.3996 10.4 12.3996Z" fill="#284A56"/>
</svg>
