<svg width="16" height="16" viewBox="0 0 16 16" fill="none" xmlns="http://www.w3.org/2000/svg">
<g clip-path="url(#clip0_166_1018)">
<path d="M10.9063 2C9.78126 2 8.51876 2.49375 7.50626 3.50625C6.49376 4.51875 6.00001 5.77812 6.00001 6.90625C6.00001 7.7875 6.30001 8.56875 6.86564 9.13437C8.12814 10.3969 10.6375 10.35 12.4938 8.49375C13.5063 7.48125 14 6.22188 14 5.09375C14 4.2125 13.7 3.43125 13.1344 2.86562C12.5688 2.3 11.7844 2 10.9063 2ZM6.09376 2.09063C7.45314 0.73125 9.21251 0 10.9063 0C12.2438 0 13.5594 0.4625 14.55 1.45312C15.5406 2.44375 16 3.75625 16 5.09375C16 6.7875 15.2688 8.54688 13.9094 9.90625C12.2094 11.6062 9.78751 12.3656 7.71564 11.8344C6.79689 11.6 5.75001 11.6625 5.08126 12.3344L4.63439 12.7812C4.83439 13.1594 4.77501 13.6375 4.45939 13.9563L2.70939 15.7063C2.31876 16.0969 1.68439 16.0969 1.29376 15.7063L0.293762 14.7063C-0.0968628 14.3156 -0.0968628 13.6812 0.293762 13.2906L2.04376 11.5406C2.36251 11.2219 2.84064 11.1625 3.21876 11.3656L3.67189 10.9125C4.34064 10.2438 4.40626 9.20312 4.17189 8.2875C4.05626 7.84063 4.00001 7.375 4.00001 6.90625C4.00001 5.2125 4.73126 3.45312 6.09064 2.09375L6.09376 2.09063Z" fill="#284A56"/>
</g>
<defs>
<clipPath id="clip0_166_1018">
<rect width="16" height="16" fill="white"/>
</clipPath>
</defs>
</svg>
