<svg width="24" height="24" viewBox="0 0 24 24" fill="none" xmlns="http://www.w3.org/2000/svg">
<path d="M14.3165 3.75C14.3165 3.02065 14.0268 2.32118 13.5111 1.80546C12.9953 1.28973 12.2959 1 11.5665 1C10.8372 1 10.1377 1.28973 9.62197 1.80546C9.10624 2.32118 8.81651 3.02065 8.81651 3.75C8.81651 4.47935 9.10624 5.17882 9.62197 5.69454C10.1377 6.21027 10.8372 6.5 11.5665 6.5C12.2959 6.5 12.9953 6.21027 13.5111 5.69454C14.0268 5.17882 14.3165 4.47935 14.3165 3.75ZM9.88643 8.27461C8.86807 7.91367 7.97432 7.23047 7.35987 6.30664L6.52198 5.04766C6.10089 4.41602 5.25011 4.24844 4.61417 4.66953C3.97823 5.09063 3.81065 5.9457 4.23175 6.57734L5.07393 7.83203C5.85167 8.99648 6.913 9.91172 8.12901 10.5133V21.625C8.12901 22.3855 8.74346 23 9.50401 23C10.2646 23 10.879 22.3855 10.879 21.625V17.5H12.254V21.625C12.254 22.3855 12.8685 23 13.629 23C14.3896 23 15.004 22.3855 15.004 21.625V10.5219C16.2544 9.91172 17.3415 8.96641 18.1278 7.76328L18.9099 6.56445C19.3224 5.92852 19.1419 5.07773 18.506 4.66094C17.87 4.24414 17.0192 4.42461 16.6024 5.06484L15.8204 6.25938C14.8837 7.69453 13.2896 8.5625 11.5751 8.5625C11.0337 8.5625 10.5052 8.47656 10.0024 8.31328C9.96378 8.30039 9.9251 8.2832 9.88643 8.27461Z" fill="white"/>
</svg>
