<svg width="24" height="24" viewBox="0 0 24 24" fill="none" xmlns="http://www.w3.org/2000/svg">
<path d="M9.75 4.75C9.75 4.33437 9.41563 4 9 4C8.58437 4 8.25 4.33437 8.25 4.75V6H7C5.89688 6 5 6.89687 5 8V8.5V10V18C5 19.1031 5.89688 20 7 20H17C18.1031 20 19 19.1031 19 18V10V8.5V8C19 6.89687 18.1031 6 17 6H15.75V4.75C15.75 4.33437 15.4156 4 15 4C14.5844 4 14.25 4.33437 14.25 4.75V6H9.75V4.75ZM6.5 10H17.5V18C17.5 18.275 17.275 18.5 17 18.5H7C6.725 18.5 6.5 18.275 6.5 18V10ZM8 13C8 13.2652 8.10536 13.5196 8.29289 13.7071C8.48043 13.8946 8.73478 14 9 14C9.26522 14 9.51957 13.8946 9.70711 13.7071C9.89464 13.5196 10 13.2652 10 13C10 12.7348 9.89464 12.4804 9.70711 12.2929C9.51957 12.1054 9.26522 12 9 12C8.73478 12 8.48043 12.1054 8.29289 12.2929C8.10536 12.4804 8 12.7348 8 13ZM15 15C14.7348 15 14.4804 15.1054 14.2929 15.2929C14.1054 15.4804 14 15.7348 14 16C14 16.2652 14.1054 16.5196 14.2929 16.7071C14.4804 16.8946 14.7348 17 15 17C15.2652 17 15.5196 16.8946 15.7071 16.7071C15.8946 16.5196 16 16.2652 16 16C16 15.7348 15.8946 15.4804 15.7071 15.2929C15.5196 15.1054 15.2652 15 15 15ZM11 13C11 13.4156 11.3344 13.75 11.75 13.75H15.25C15.6656 13.75 16 13.4156 16 13C16 12.5844 15.6656 12.25 15.25 12.25H11.75C11.3344 12.25 11 12.5844 11 13ZM12.25 15.25H8.75C8.33437 15.25 8 15.5844 8 16C8 16.4156 8.33437 16.75 8.75 16.75H12.25C12.6656 16.75 13 16.4156 13 16C13 15.5844 12.6656 15.25 12.25 15.25Z" fill="#284A56"/>
</svg>
