<svg width="24" height="24" viewBox="0 0 24 24" fill="none" xmlns="http://www.w3.org/2000/svg">
<circle cx="12" cy="12" r="12" fill="#284A56"/>
<path d="M16.7066 8.70625C17.0973 8.31563 17.0973 7.68125 16.7066 7.29063C16.316 6.9 15.6816 6.9 15.291 7.29063L12.0004 10.5844L8.70664 7.29375C8.31602 6.90313 7.68164 6.90313 7.29102 7.29375C6.90039 7.68438 6.90039 8.31875 7.29102 8.70938L10.5848 12L7.29414 15.2938C6.90352 15.6844 6.90352 16.3188 7.29414 16.7094C7.68477 17.1 8.31914 17.1 8.70977 16.7094L12.0004 13.4156L15.2941 16.7063C15.6848 17.0969 16.3191 17.0969 16.7098 16.7063C17.1004 16.3156 17.1004 15.6813 16.7098 15.2906L13.416 12L16.7066 8.70625Z" fill="white"/>
</svg>
