<svg width="24" height="25" viewBox="0 0 24 25" fill="none" xmlns="http://www.w3.org/2000/svg">
<path d="M18.6917 7.29538C19.1028 6.88425 19.1028 6.21946 18.6917 5.81271C18.2805 5.40597 17.6157 5.40159 17.209 5.81271L12.0044 11.0173L6.79538 5.80834C6.38425 5.39722 5.71946 5.39722 5.31271 5.80834C4.90597 6.21946 4.90159 6.88425 5.31271 7.291L10.5173 12.4956L5.30834 17.7046C4.89722 18.1157 4.89722 18.7805 5.30834 19.1873C5.71946 19.594 6.38425 19.5984 6.791 19.1873L11.9956 13.9827L17.2046 19.1917C17.6157 19.6028 18.2805 19.6028 18.6873 19.1917C19.094 18.7805 19.0984 18.1157 18.6873 17.709L13.4827 12.5044L18.6917 7.29538Z" fill="#284A56"/>
</svg>
