<svg width="24" height="24" viewBox="0 0 24 24" fill="none" xmlns="http://www.w3.org/2000/svg">
<path d="M11.75 6.375C11.4062 6.375 11.125 6.09375 11.125 5.75V5.125C11.125 3.39844 12.5234 2 14.25 2H14.875C15.2188 2 15.5 2.28125 15.5 2.625V3.25C15.5 4.97656 14.1016 6.375 12.375 6.375H11.75ZM3 13.25C3 10.2695 4.39453 7 7.375 7C8.44141 7 9.70703 7.40234 10.6055 7.75391C11.3398 8.03906 12.1641 8.03906 12.8984 7.75391C13.793 7.40625 15.0625 7 16.1289 7C19.1094 7 20.5039 10.2695 20.5039 13.25C20.5039 18.25 17.3789 22 14.2539 22C13.6094 22 12.7656 21.7422 12.2422 21.5586C11.9258 21.4492 11.582 21.4492 11.2656 21.5586C10.7422 21.7422 9.89844 22 9.25391 22C6.125 22 3 18.25 3 13.25Z" fill="#00B4DB"/>
</svg>
