<svg width="24" height="24" viewBox="0 0 24 24" fill="none" xmlns="http://www.w3.org/2000/svg">
<path d="M11.75 6.375H12.375C14.1016 6.375 15.5 4.97656 15.5 3.25V2.625C15.5 2.28125 15.2188 2 14.875 2H14.25C12.5234 2 11.125 3.39844 11.125 5.125V5.75C11.125 6.09375 11.4062 6.375 11.75 6.375ZM4.875 13.25C4.875 12.0117 5.17188 10.8086 5.67188 9.98047C6.14453 9.19922 6.69922 8.875 7.375 8.875C8.07031 8.875 9.0625 9.16406 9.92578 9.5C11.0977 9.95703 12.4062 9.95703 13.5781 9.5C14.4414 9.16406 15.4336 8.875 16.1289 8.875C16.8047 8.875 17.3594 9.19922 17.832 9.98047C18.3281 10.8086 18.625 12.0117 18.625 13.25C18.625 15.3672 17.9609 17.1562 17.0469 18.375C16.1094 19.625 15.0469 20.125 14.25 20.125C14.0703 20.125 13.7188 20.0586 13.2773 19.9258C12.2852 19.6289 11.2188 19.6289 10.2266 19.9258C9.78516 20.0586 9.43359 20.125 9.25391 20.125C8.45703 20.125 7.39453 19.625 6.45703 18.375C5.53906 17.1562 4.875 15.3672 4.875 13.25ZM7.375 7C4.39453 7 3 10.2695 3 13.25C3 18.25 6.125 22 9.25 22C9.71484 22 10.2852 21.8672 10.7656 21.7227C11.4062 21.5312 12.0977 21.5312 12.7383 21.7227C13.2148 21.8672 13.7852 22 14.2539 22C17.3789 22 20.5039 18.25 20.5039 13.25C20.5039 10.2695 19.1094 7 16.1289 7C15.0625 7 13.7969 7.40234 12.8984 7.75391C12.1641 8.03906 11.3398 8.03906 10.6055 7.75391C9.70703 7.40234 8.44141 7 7.375 7Z" fill="#B8B8B8"/>
</svg>
