<svg width="108" height="83" viewBox="0 0 108 83" fill="none" xmlns="http://www.w3.org/2000/svg">
<path fill-rule="evenodd" clip-rule="evenodd" d="M0.571289 76.4127C0.571289 80.0508 3.52053 83 7.15859 83C10.7967 83 13.7459 80.0508 13.7459 76.4127V39.5238C13.7459 24.9715 25.5428 13.1746 40.0951 13.1746H76.984C80.6221 13.1746 83.5713 10.2254 83.5713 6.58729C83.5713 2.94922 80.6221 -1.52588e-05 76.984 -1.52588e-05H64.2046C54.1927 -1.52588e-05 46.4075 -1.52588e-05 40.0951 0.391597C32.2161 0.880397 26.6316 1.9793 21.8756 4.44983C14.6569 8.19968 8.77098 14.0856 5.02114 21.3043C2.55061 26.0603 1.4517 31.6448 0.962902 39.5238C0.571289 45.8362 0.571289 53.6214 0.571289 63.6333V76.4127Z" fill="white"/>
<path fill-rule="evenodd" clip-rule="evenodd" d="M107.286 6.58728C107.286 2.94921 104.336 -2.3146e-05 100.698 -2.34641e-05C97.0603 -2.37821e-05 94.111 2.94921 94.111 6.58728L94.111 43.4762C94.111 58.0284 82.3141 69.8254 67.7618 69.8254L30.8729 69.8254C27.2349 69.8254 24.2856 72.7746 24.2856 76.4127C24.2856 80.0507 27.2349 83 30.8729 83L43.6523 83C53.6642 83 61.4494 83 67.7618 82.6084C75.6408 82.1196 81.2253 81.0207 85.9813 78.5501C93.2001 74.8003 99.086 68.9144 102.836 61.6956C105.306 56.9397 106.405 51.3552 106.894 43.4762C107.286 37.1637 107.286 29.3785 107.286 19.3666L107.286 6.58728Z" fill="white"/>
<rect x="4.52368" y="34.7809" width="39.7873" height="13.1746" rx="6.5873" fill="white"/>
<circle cx="61.965" cy="41.3682" r="8.43175" fill="white"/>
</svg>
