<svg width="24" height="24" viewBox="0 0 24 24" fill="none" xmlns="http://www.w3.org/2000/svg">
<path d="M3.85938 13.0879L10.918 19.6777C11.2109 19.9511 11.5977 20.1035 12 20.1035C12.4023 20.1035 12.7891 19.9511 13.082 19.6777L20.1406 13.0879C21.3281 11.9824 22 10.4316 22 8.81051V8.58395C22 5.85348 20.0273 3.52536 17.3359 3.07614C15.5547 2.77926 13.7422 3.36129 12.4688 4.63473L12 5.10348L11.5312 4.63473C10.2578 3.36129 8.44531 2.77926 6.66406 3.07614C3.97266 3.52536 2 5.85348 2 8.58395V8.81051C2 10.4316 2.67187 11.9824 3.85938 13.0879Z" fill="#00B4DB"/>
</svg>
