<svg width="24" height="24" viewBox="0 0 24 24" fill="none" xmlns="http://www.w3.org/2000/svg">
<path d="M8.35764 11.1166C9.52778 11.8354 10.5417 12.7868 11.3368 13.9118C11.5799 14.2555 11.8021 14.6166 12 14.9881C12.1979 14.6131 12.4201 14.2555 12.6632 13.9118C13.4583 12.7868 14.4722 11.8354 15.6424 11.1166C17.1944 10.1618 19.0174 9.61314 20.9583 9.61314H21.3021C21.6875 9.61314 22 9.92564 22 10.3111C22 15.4499 17.8368 19.6131 12.6979 19.6131H12H11.3021C6.16319 19.6131 2 15.4499 2 10.3111C2 9.92564 2.3125 9.61314 2.69792 9.61314H3.04167C4.98264 9.61314 6.80556 10.1618 8.35764 11.1166ZM12.4688 4.25203C13.0139 4.83884 14.5903 6.74509 15.3993 9.96731C14.0799 10.7173 12.9201 11.7312 12 12.9395C11.0799 11.7312 9.92014 10.7208 8.6007 9.96731C9.40625 6.74509 10.9826 4.83884 11.5312 4.25203C11.6528 4.12356 11.8229 4.05759 12 4.05759C12.1771 4.05759 12.3472 4.12356 12.4688 4.25203Z" fill="#284A56"/>
</svg>
