<svg width="24" height="24" viewBox="0 0 24 24" fill="none" xmlns="http://www.w3.org/2000/svg">
<path d="M10.8203 19.6163L10.7227 19.5265L3.87891 13.171C2.67969 12.0577 2 10.4952 2 8.85853V8.72962C2 5.97962 3.95312 3.62025 6.65625 3.10462C8.19531 2.80775 9.76953 3.16322 11.0234 4.04603C11.375 4.29603 11.7031 4.58509 12 4.91712C12.1641 4.72962 12.3398 4.55775 12.5273 4.39759C12.6719 4.27259 12.8203 4.1554 12.9766 4.04603C14.2305 3.16322 15.8047 2.80775 17.3438 3.10072C20.0469 3.61634 22 5.97962 22 8.72962V8.85853C22 10.4952 21.3203 12.0577 20.1211 13.171L13.2773 19.5265L13.1797 19.6163C12.8594 19.9132 12.4375 20.0812 12 20.0812C11.5625 20.0812 11.1406 19.9171 10.8203 19.6163ZM11.3398 6.99134C11.3242 6.97962 11.3125 6.964 11.3008 6.94837L10.6055 6.16712L10.6016 6.16322C9.69922 5.1515 8.33594 4.69056 7.00781 4.94447C5.1875 5.29212 3.875 6.87806 3.875 8.72962V8.85853C3.875 9.97181 4.33984 11.0382 5.15625 11.796L12 18.1515L18.8438 11.796C19.6602 11.0382 20.125 9.97181 20.125 8.85853V8.72962C20.125 6.88197 18.8125 5.29212 16.9961 4.94447C15.668 4.69056 14.3008 5.1554 13.4023 6.16322C13.4023 6.16322 13.4023 6.16322 13.3984 6.16712C13.3945 6.17103 13.3984 6.16712 13.3945 6.17103L12.6992 6.95228C12.6875 6.9679 12.6719 6.97962 12.6602 6.99525C12.4844 7.17103 12.2461 7.26869 12 7.26869C11.7539 7.26869 11.5156 7.17103 11.3398 6.99525V6.99134Z" fill="#B8B8B8"/>
</svg>
