<svg width="24" height="24" viewBox="0 0 24 24" fill="none" xmlns="http://www.w3.org/2000/svg">
<path d="M13.0769 6.07692C13.0769 5.48125 12.5957 5 12 5C11.4043 5 10.9231 5.48125 10.9231 6.07692V10.9231H6.07692C5.48125 10.9231 5 11.4043 5 12C5 12.5957 5.48125 13.0769 6.07692 13.0769H10.9231V17.9231C10.9231 18.5188 11.4043 19 12 19C12.5957 19 13.0769 18.5188 13.0769 17.9231V13.0769H17.9231C18.5188 13.0769 19 12.5957 19 12C19 11.4043 18.5188 10.9231 17.9231 10.9231H13.0769V6.07692Z" fill="#284A56"/>
</svg>
