<svg width="24" height="24" viewBox="0 0 24 24" fill="none" xmlns="http://www.w3.org/2000/svg">
<path d="M15 8.5C15 7.70435 14.6839 6.94129 14.1213 6.37868C13.5587 5.81607 12.7956 5.5 12 5.5C11.2044 5.5 10.4413 5.81607 9.87868 6.37868C9.31607 6.94129 9 7.70435 9 8.5C9 9.29565 9.31607 10.0587 9.87868 10.6213C10.4413 11.1839 11.2044 11.5 12 11.5C12.7956 11.5 13.5587 11.1839 14.1213 10.6213C14.6839 10.0587 15 9.29565 15 8.5ZM7.5 8.5C7.5 7.30653 7.97411 6.16193 8.81802 5.31802C9.66193 4.47411 10.8065 4 12 4C13.1935 4 14.3381 4.47411 15.182 5.31802C16.0259 6.16193 16.5 7.30653 16.5 8.5C16.5 9.69347 16.0259 10.8381 15.182 11.682C14.3381 12.5259 13.1935 13 12 13C10.8065 13 9.66193 12.5259 8.81802 11.682C7.97411 10.8381 7.5 9.69347 7.5 8.5ZM5.54062 18.5H18.4594C18.2 16.8 16.7313 15.5 14.9594 15.5H9.04063C7.26875 15.5 5.80312 16.8 5.54062 18.5ZM4 19.0406C4 16.2562 6.25625 14 9.04063 14H14.9594C17.7438 14 20 16.2562 20 19.0406C20 19.5719 19.5687 20 19.0406 20H4.95938C4.43125 20 4 19.5687 4 19.0406Z" fill="#B8B8B8"/>
</svg>
