<svg width="24" height="24" viewBox="0 0 24 24" fill="none" xmlns="http://www.w3.org/2000/svg">
<path d="M7.9934 9.76493C9.28056 10.5556 10.3958 11.6021 11.2705 12.8396C11.5378 13.2177 11.7823 13.6149 12 14.0236C12.2177 13.6111 12.4622 13.2177 12.7295 12.8396C13.6042 11.6021 14.7194 10.5556 16.0066 9.76493C17.7139 8.71458 19.7191 8.11111 21.8542 8.11111H22.2323C22.6562 8.11111 23 8.45486 23 8.87882C23 14.5316 18.4205 19.1111 12.7677 19.1111H12H11.2323C5.57951 19.1111 1 14.5316 1 8.87882C1 8.45486 1.34375 8.11111 1.76771 8.11111H2.14583C4.2809 8.11111 6.28611 8.71458 7.9934 9.76493ZM12.5156 2.21389C13.1153 2.85937 14.8493 4.95625 15.7392 8.50069C14.2878 9.32569 13.0122 10.441 12 11.7701C10.9878 10.441 9.71215 9.32951 8.26076 8.50069C9.14688 4.95625 10.8809 2.85937 11.4844 2.21389C11.6181 2.07257 11.8052 2 12 2C12.1948 2 12.3819 2.07257 12.5156 2.21389Z" fill="#00B4DB"/>
</svg>
