<svg width="24" height="24" viewBox="0 0 24 24" fill="none" xmlns="http://www.w3.org/2000/svg">
<path d="M12 5.29549C12.8097 6.24653 13.9899 7.95764 14.6201 10.4326C15.1281 10.0392 15.6667 9.68785 16.2319 9.37847C15.1892 5.87986 13.2031 3.81736 12.5347 3.19861C12.3896 3.06493 12.1986 3 12.0038 3C11.809 3 11.6181 3.06493 11.4729 3.19861C10.8045 3.81736 8.8184 5.87604 7.77569 9.37847C8.34097 9.68785 8.87951 10.0392 9.3875 10.4326C10.0177 7.95764 11.1941 6.24271 12.0076 5.29549H12ZM8.33333 19.6948C9.20799 19.9507 10.1285 20.0958 11.0833 20.1111H12.9167C13.8715 20.0958 14.792 19.9545 15.6667 19.6948C19.9062 18.4458 23 14.5233 23 9.87882C23 9.45486 22.6562 9.11111 22.2323 9.11111C19.8757 9.11111 17.584 9.79479 15.6667 11.1774C14.0701 12.3233 12.7983 13.8892 12 15.7111C11.2017 13.8892 9.92986 12.3271 8.33333 11.1774C6.41597 9.79479 4.12431 9.11111 1.76771 9.11111C1.34375 9.11111 1 9.45486 1 9.87882C1 14.5233 4.09375 18.4458 8.33333 19.6948ZM8.33333 17.766C5.46111 16.708 3.32222 14.1222 2.9059 10.9979C5.01042 11.2233 6.90104 12.1628 8.33333 13.5646C9.61285 14.8212 10.5257 16.4483 10.9 18.2701C10.0024 18.2358 9.13924 18.0601 8.33333 17.7622V17.766ZM15.6667 17.766C14.8608 18.0601 14.0014 18.2396 13.1 18.274C13.4705 16.4483 14.3872 14.8212 15.6667 13.5684C17.099 12.1628 18.9896 11.2271 21.0941 11.0017C20.6778 14.1222 18.5389 16.708 15.6667 17.7622V17.766Z" fill="#B8B8B8"/>
</svg>
