<svg width="24" height="24" viewBox="0 0 24 24" fill="none" xmlns="http://www.w3.org/2000/svg">
<path d="M12 22.0576C14.6522 22.0576 17.1957 21.004 19.0711 19.1287C20.9464 17.2533 22 14.7098 22 12.0576C22 9.40542 20.9464 6.86188 19.0711 4.98652C17.1957 3.11116 14.6522 2.05759 12 2.05759C9.34784 2.05759 6.8043 3.11116 4.92893 4.98652C3.05357 6.86188 2 9.40542 2 12.0576C2 14.7098 3.05357 17.2533 4.92893 19.1287C6.8043 21.004 9.34784 22.0576 12 22.0576ZM8.41016 14.7724C9.10938 15.581 10.3047 16.4326 12 16.4326C13.6953 16.4326 14.8906 15.581 15.5898 14.7724C15.8164 14.5107 16.2109 14.4834 16.4727 14.7099C16.7344 14.9365 16.7617 15.331 16.5352 15.5927C15.6641 16.5927 14.1523 17.6826 12 17.6826C9.84766 17.6826 8.33594 16.5927 7.46484 15.5927C7.23828 15.331 7.26562 14.9365 7.52734 14.7099C7.78906 14.4834 8.18359 14.5107 8.41016 14.7724ZM10.5 10.9951L10.4922 10.9873C10.4844 10.9795 10.4766 10.9677 10.4648 10.9521C10.4414 10.9209 10.4023 10.874 10.3555 10.8193C10.2578 10.7099 10.1211 10.5615 9.95703 10.417C9.61328 10.1123 9.22266 9.87009 8.875 9.87009C8.52734 9.87009 8.13672 10.1123 7.79297 10.417C7.62891 10.5615 7.49219 10.7099 7.39453 10.8193C7.34766 10.874 7.30859 10.9209 7.28516 10.9521C7.27344 10.9677 7.26172 10.9795 7.25781 10.9873L7.25 10.9951C7.16797 11.1045 7.02734 11.1474 6.90234 11.1045C6.77734 11.0615 6.6875 10.9443 6.6875 10.8076C6.6875 10.1084 6.94922 9.41696 7.33594 8.90134C7.71875 8.39352 8.26953 7.99509 8.875 7.99509C9.48047 7.99509 10.0312 8.39352 10.4141 8.90134C10.8008 9.41696 11.0625 10.1084 11.0625 10.8076C11.0625 10.9404 10.9766 11.0615 10.8477 11.1045C10.7188 11.1474 10.5781 11.1045 10.5 10.9951ZM16.75 10.9951L16.7422 10.9873C16.7344 10.9795 16.7266 10.9677 16.7148 10.9521C16.6914 10.9209 16.6523 10.874 16.6055 10.8193C16.5078 10.7099 16.3711 10.5615 16.207 10.417C15.8633 10.1123 15.4727 9.87009 15.125 9.87009C14.7773 9.87009 14.3867 10.1123 14.043 10.417C13.8789 10.5615 13.7422 10.7099 13.6445 10.8193C13.5977 10.874 13.5586 10.9209 13.5352 10.9521C13.5234 10.9677 13.5117 10.9795 13.5078 10.9873L13.5 10.9951C13.418 11.1045 13.2773 11.1474 13.1523 11.1045C13.0273 11.0615 12.9375 10.9443 12.9375 10.8076C12.9375 10.1084 13.1992 9.41696 13.5859 8.90134C13.9688 8.39352 14.5195 7.99509 15.125 7.99509C15.7305 7.99509 16.2812 8.39352 16.6641 8.90134C17.0508 9.41696 17.3125 10.1084 17.3125 10.8076C17.3125 10.9404 17.2266 11.0615 17.0977 11.1045C16.9688 11.1474 16.8281 11.1045 16.75 10.9951Z" fill="#284A56"/>
</svg>
