<svg width="24" height="24" viewBox="0 0 24 24" fill="none" xmlns="http://www.w3.org/2000/svg">
<path d="M7.5 9.1875C7.5 7.99403 7.97411 6.84943 8.81802 6.00552C9.66193 5.16161 10.8065 4.6875 12 4.6875C13.1935 4.6875 14.3381 5.16161 15.182 6.00552C16.0259 6.84943 16.5 7.99403 16.5 9.1875C16.5 10.381 16.0259 11.5256 15.182 12.3695C14.3381 13.2134 13.1935 13.6875 12 13.6875C10.8065 13.6875 9.66193 13.2134 8.81802 12.3695C7.97411 11.5256 7.5 10.381 7.5 9.1875ZM16.7742 5.25C15.6387 3.87539 13.923 3 12 3C10.077 3 8.36133 3.87539 7.22578 5.25H5.25C4.00898 5.25 3 6.25898 3 7.5V18.75C3 19.991 4.00898 21 5.25 21H18.75C19.991 21 21 19.991 21 18.75V7.5C21 6.25898 19.991 5.25 18.75 5.25H16.7742ZM13.4062 10.875C13.4062 10.5023 13.2621 10.1648 13.023 9.91172L14.2043 7.15898C14.3273 6.87422 14.1937 6.54375 13.909 6.4207C13.6242 6.29766 13.2937 6.43125 13.1707 6.71602L11.9895 9.46875C11.216 9.47227 10.5938 10.1016 10.5938 10.875C10.5938 11.652 11.223 12.2812 12 12.2812C12.777 12.2812 13.4062 11.652 13.4062 10.875Z" fill="#284A56"/>
</svg>
