<svg width="24" height="24" viewBox="0 0 24 24" fill="none" xmlns="http://www.w3.org/2000/svg">
<path d="M4.8 6.1C4.8 4.94125 5.74125 4 6.9 4H7.5C8.65875 4 9.6 4.94125 9.6 6.1V11.5H14.4V6.1C14.4 4.94125 15.3413 4 16.5 4H17.1C18.2588 4 19.2 4.94125 19.2 6.1V6.7H20.1C21.2588 6.7 22.2 7.64125 22.2 8.8V11.5H23.1C23.5988 11.5 24 11.9012 24 12.4C24 12.8987 23.5988 13.3 23.1 13.3H22.2V16C22.2 17.1587 21.2588 18.1 20.1 18.1H19.2V18.7C19.2 19.8587 18.2588 20.8 17.1 20.8H16.5C15.3413 20.8 14.4 19.8587 14.4 18.7V13.3H9.6V18.7C9.6 19.8587 8.65875 20.8 7.5 20.8H6.9C5.74125 20.8 4.8 19.8587 4.8 18.7V18.1H3.9C2.74125 18.1 1.8 17.1587 1.8 16V13.3H0.9C0.40125 13.3 0 12.8987 0 12.4C0 11.9012 0.40125 11.5 0.9 11.5H1.8V8.8C1.8 7.64125 2.74125 6.7 3.9 6.7H4.8V6.1ZM6.6 6.7V7.6V17.2V18.1V18.7C6.6 18.865 6.735 19 6.9 19H7.5C7.665 19 7.8 18.865 7.8 18.7V6.1C7.8 5.935 7.665 5.8 7.5 5.8H6.9C6.735 5.8 6.6 5.935 6.6 6.1V6.7ZM4.8 8.5H3.9C3.735 8.5 3.6 8.635 3.6 8.8V16C3.6 16.165 3.735 16.3 3.9 16.3H4.8V8.5ZM17.4 17.2V7.6V6.7V6.1C17.4 5.935 17.265 5.8 17.1 5.8H16.5C16.335 5.8 16.2 5.935 16.2 6.1V18.7C16.2 18.865 16.335 19 16.5 19H17.1C17.265 19 17.4 18.865 17.4 18.7V18.1V17.2ZM20.1 16.3C20.265 16.3 20.4 16.165 20.4 16V8.8C20.4 8.635 20.265 8.5 20.1 8.5H19.2V16.3H20.1Z" fill="#B8B8B8"/>
</svg>
