<svg width="24" height="24" viewBox="0 0 24 24" fill="none" xmlns="http://www.w3.org/2000/svg">
<path d="M3.6 5.2C3.6 4.53625 4.13625 4 4.8 4H6C6.66375 4 7.2 4.53625 7.2 5.2V11.2V13.6V19.6C7.2 20.2637 6.66375 20.8 6 20.8H4.8C4.13625 20.8 3.6 20.2637 3.6 19.6V17.2H2.4C1.73625 17.2 1.2 16.6637 1.2 16V13.6C0.53625 13.6 0 13.0637 0 12.4C0 11.7362 0.53625 11.2 1.2 11.2V8.8C1.2 8.13625 1.73625 7.6 2.4 7.6H3.6V5.2ZM20.4 5.2V7.6H21.6C22.2638 7.6 22.8 8.13625 22.8 8.8V11.2C23.4638 11.2 24 11.7362 24 12.4C24 13.0637 23.4638 13.6 22.8 13.6V16C22.8 16.6637 22.2638 17.2 21.6 17.2H20.4V19.6C20.4 20.2637 19.8638 20.8 19.2 20.8H18C17.3363 20.8 16.8 20.2637 16.8 19.6V13.6V11.2V5.2C16.8 4.53625 17.3363 4 18 4H19.2C19.8638 4 20.4 4.53625 20.4 5.2ZM15.6 11.2V13.6H8.4V11.2H15.6Z" fill="#00B4DB"/>
</svg>
